<svg width="69" height="69" viewBox="0 0 69 69" fill="none" xmlns="http://www.w3.org/2000/svg">
<path opacity="0.5" fill-rule="evenodd" clip-rule="evenodd" d="M4.89023 29.2494C2.19958 29.2494 0.0183797 31.4306 0.0183816 34.1212C0.0183836 36.8119 2.19959 38.9931 4.89024 38.9931L29.2489 38.9931L29.2489 63.3524C29.2489 66.0431 31.4301 68.2243 34.1208 68.2243C36.8115 68.2243 38.9927 66.0431 38.9927 63.3524L38.9926 38.9931L63.3525 38.9931C66.0432 38.9931 68.2244 36.8119 68.2244 34.1213C68.2244 31.4306 66.0431 29.2494 63.3525 29.2494L38.9926 29.2494L38.9926 4.89018C38.9926 2.19953 36.8114 0.0183262 34.1208 0.0183246C31.4301 0.0183229 29.2489 2.19953 29.2489 4.89018L29.2489 29.2494L4.89023 29.2494Z" fill="#FDFFFC"/>
</svg>
