<svg width="51" height="42" viewBox="0 0 51 42" fill="none" xmlns="http://www.w3.org/2000/svg">
<path d="M41.5323 18.3329L41.3526 18.62C40.4558 18.4192 39.5217 18.3131 38.5619 18.3131C31.7734 18.3131 26.2705 23.6155 26.2705 30.1566C26.2705 33.1256 27.4035 35.8379 29.2762 37.9167L28.9012 38.5156C26.4121 39.5302 23.6757 40.0909 20.8036 40.0909C9.31429 40.0909 0 31.1161 0 20.0455C0 8.97485 9.31429 0 20.8036 0C31.6941 0 40.6305 8.06343 41.5323 18.3329Z" fill="#22B573"/>
<path d="M19.2158 31.1683C20.45 31.2362 21.5075 30.3276 21.5786 29.139L22.2963 17.0679C22.3668 15.8786 21.4238 14.8598 20.1903 14.7912C18.956 14.7233 17.8986 15.6319 17.8274 16.8205L17.1097 28.8916C17.0386 30.0809 17.9822 31.1005 19.2158 31.1683Z" fill="#E6E6E6"/>
<path d="M9.89261 12.8503C9.63138 11.6865 10.3982 10.5382 11.6061 10.2865L25.0172 7.48792C26.2251 7.2362 27.4168 7.97509 27.678 9.13893C27.9393 10.3028 27.1724 11.451 25.9646 11.7028L12.5534 14.5021C11.3456 14.7538 10.1539 14.0149 9.89261 12.8503Z" fill="white"/>
<path d="M50.9999 30.1566C50.9999 36.6977 45.497 42 38.7085 42C35.0006 42 31.6764 40.4183 29.4229 37.9167L41.4992 18.62C46.9434 19.8376 50.9999 24.5403 50.9999 30.1566Z" fill="#666666"/>
</svg>
