<svg width="11" height="13" viewBox="0 0 11 13" fill="none" xmlns="http://www.w3.org/2000/svg">
<path d="M0.34375 0.875V12.125H1.28125V8.375H10.6562V0.875H0.34375ZM1.28125 1.8125H2.6875V3.21875H4.09375V1.8125H5.5V3.21875H6.90625V1.8125H8.3125V3.21875H9.71875V4.625H8.3125V6.03125H9.71875V7.4375H8.3125V6.03125H6.90625V7.4375H5.5V6.03125H4.09375V7.4375H2.6875V6.03125H1.28125V4.625H2.6875V3.21875H1.28125V1.8125ZM2.6875 4.625V6.03125H4.09375V4.625H2.6875ZM4.09375 4.625H5.5V3.21875H4.09375V4.625ZM5.5 4.625V6.03125H6.90625V4.625H5.5ZM6.90625 4.625H8.3125V3.21875H6.90625V4.625Z" fill="#FDFFFC"/>
</svg>
