<svg width="15" height="15" viewBox="0 0 15 15" fill="none" xmlns="http://www.w3.org/2000/svg">
<path fill-rule="evenodd" clip-rule="evenodd" d="M7.5 0.625C3.70312 0.625 0.625 3.70312 0.625 7.5C0.625 11.2969 3.70312 14.375 7.5 14.375C11.2969 14.375 14.375 11.2969 14.375 7.5C14.375 3.70312 11.2969 0.625 7.5 0.625ZM6.8075 5.58437C6.95125 5.30125 7.0575 5.16687 7.14562 5.09687C7.21187 5.04437 7.30187 5 7.5 5C7.89062 5 8.125 5.29375 8.125 5.61125C8.125 5.785 8.09125 5.87125 7.99875 5.98125C7.86937 6.135 7.63 6.32187 7.15625 6.635L6.875 6.82V8.125C6.875 8.29076 6.94085 8.44973 7.05806 8.56694C7.17527 8.68415 7.33424 8.75 7.5 8.75C7.66576 8.75 7.82473 8.68415 7.94194 8.56694C8.05915 8.44973 8.125 8.29076 8.125 8.125V7.48937C8.46375 7.25562 8.74812 7.03187 8.95437 6.78687C9.2525 6.43312 9.375 6.05562 9.375 5.61125C9.375 4.6925 8.66687 3.75 7.5 3.75C7.0725 3.75 6.69437 3.86 6.37 4.11687C6.0675 4.35625 5.86125 4.68562 5.6925 5.02C5.65329 5.09342 5.62913 5.17393 5.62146 5.2568C5.61378 5.33968 5.62273 5.42326 5.64779 5.50263C5.67285 5.582 5.71352 5.65557 5.76739 5.71901C5.82127 5.78245 5.88727 5.8345 5.96154 5.87209C6.0358 5.90968 6.11682 5.93205 6.19985 5.9379C6.28287 5.94376 6.36623 5.93297 6.44503 5.90617C6.52383 5.87937 6.59649 5.8371 6.65873 5.78184C6.72097 5.72658 6.77155 5.65945 6.8075 5.58437ZM8.125 10.3125C8.125 10.1467 8.05915 9.98777 7.94194 9.87056C7.82473 9.75335 7.66576 9.6875 7.5 9.6875C7.33424 9.6875 7.17527 9.75335 7.05806 9.87056C6.94085 9.98777 6.875 10.1467 6.875 10.3125V10.625C6.875 10.7908 6.94085 10.9497 7.05806 11.0669C7.17527 11.1842 7.33424 11.25 7.5 11.25C7.66576 11.25 7.82473 11.1842 7.94194 11.0669C8.05915 10.9497 8.125 10.7908 8.125 10.625V10.3125Z" fill="#FDFFFC"/>
</svg>
