<svg width="15" height="15" viewBox="0 0 15 15" fill="none" xmlns="http://www.w3.org/2000/svg">
<path d="M7.5 0.9375C3.87598 0.9375 0.9375 3.87598 0.9375 7.5C0.9375 11.124 3.87598 14.0625 7.5 14.0625C11.124 14.0625 14.0625 11.124 14.0625 7.5C14.0625 3.87598 11.124 0.9375 7.5 0.9375ZM10.0854 9.51709L9.6665 10.0884C9.65739 10.1008 9.64591 10.1113 9.63272 10.1193C9.61953 10.1273 9.60489 10.1326 9.58965 10.1349C9.5744 10.1372 9.55885 10.1365 9.54388 10.1328C9.52892 10.1291 9.51483 10.1225 9.50244 10.1133L7.07959 8.34668C7.0645 8.33584 7.05223 8.32153 7.04381 8.30496C7.0354 8.28839 7.03109 8.27005 7.03125 8.25146V4.21875C7.03125 4.1543 7.08398 4.10156 7.14844 4.10156H7.85303C7.91748 4.10156 7.97021 4.1543 7.97021 4.21875V7.84424L10.0591 9.35449C10.1118 9.39111 10.1235 9.46436 10.0854 9.51709Z" fill="#FDFFFC"/>
</svg>
